<svg width="219" height="58" viewBox="0 0 219 58" xmlns="http://www.w3.org/2000/svg">
    <defs>
        <linearGradient x1="88.179%" y1="28.097%" x2="6.862%" y2="80.995%" id="pewxg2mdda">
            <stop stop-color="#131415" offset="0%"/>
            <stop stop-color="#131415" stop-opacity=".3" offset="100%"/>
        </linearGradient>
    </defs>
    <g fill="none" fill-rule="evenodd">
        <text font-family="MakroXM-Bold, Makro XM" font-size="34.544" font-style="expanded" font-weight="bold" fill="#131415">
                    <tspan x="77.021" y="36.589">en</tspan>
                    <tspan x="133.273" y="36.589" letter-spacing="-.349">s</tspan>
                    <tspan x="158.209" y="36.589" letter-spacing="-.556">y</tspan>
                    <tspan x="184.488" y="36.589">s</tspan>
                </text>
        <path d="M30.177 0h-.121C20.067.084 11.02 5.6 6.857 16.269c-1.166 2.988-1.882 5.795-1.882 9.141 0 7.18 11.02 6.43 11.02.063 0-7.421 5.518-15.111 13.516-16.082 5.784-.702 8.841 3.02 8.841 7.549 0 5.57 8.869 5.986 8.869 0C47.22 7.164 40.144.02 30.267 0h-.09z" fill="#131415"/>
        <path d="M38.352 16.939c0 5.645-4.223 9.32-11.794 14.611-7.573 5.29-23.394 13.375-25.086 14.306-1.692.931-1.684 3.15-1.167 4.21.517 1.062 2.158 2.336 4.338 1.48 2.179-.858 16.324-7.482 24.678-12.58 8.353-5.097 17.9-11.342 17.9-22.027 0-2.883-2.186-4.295-4.387-4.295-2.233 0-4.482 1.452-4.482 4.295" fill="url(#pewxg2mdda)"/>
        <path d="M4.98 25.171c.25-6.657 11.014-6.416 11.014.301l.007.404c.318 9.508 11.785 15.901 16.822 19.296l.385-.494c6.86-8.735 16.774-18.27 28.577-23.819-1.18 1.607-1.732 3.87-1.415 6.367.487 3.83 2.908 6.85 5.83 7.461-11.382 4.664-21.394 15.718-25.553 20.103l-.237.243c-4.993 4.972-11.787 2.725-15.24.263l-.13-.093c-2.248-1.592-8.43-5.768-13.742-11.964l-.294-.348c-3.971-4.77-6.03-10.147-6.03-17.482zm60.996-5.128c2.723-.347 5.283 1.957 5.825 5.501l.03.223.026.222c.382 3.694-1.483 6.86-4.102 7.193-2.67.34-5.318-2.368-5.8-6.156-.473-3.729 1.296-6.636 4.021-6.983z" fill="#131415"/>
        <path d="M214.961 16.436V15.2h.803c.1 0 .203.007.307.022a.863.863 0 0 1 .277.084c.08.042.145.101.196.178a.56.56 0 0 1 .076.311.651.651 0 0 1-.085.36.51.51 0 0 1-.228.19.99.99 0 0 1-.325.076 5.344 5.344 0 0 1-.388.014h-.633zm-.606-1.724v3.882h.606v-1.67h.642l1.061 1.67h.65L216.2 16.88c.292-.03.535-.126.732-.289.196-.163.294-.419.294-.768 0-.373-.112-.652-.335-.835-.222-.184-.566-.276-1.03-.276h-1.506zm-1.453 1.928c0-.397.07-.767.21-1.11.139-.344.332-.642.579-.893a2.72 2.72 0 0 1 1.966-.813c.386 0 .746.072 1.078.218.333.145.623.343.87.595.246.251.44.55.58.893.139.343.209.713.209 1.11 0 .409-.07.786-.21 1.133a2.698 2.698 0 0 1-1.449 1.501 2.67 2.67 0 0 1-1.078.218c-.393 0-.757-.073-1.093-.218a2.685 2.685 0 0 1-1.453-1.501 3.001 3.001 0 0 1-.21-1.133zm-.607 0c0 .48.09.922.268 1.328a3.29 3.29 0 0 0 1.797 1.755c.407.165.839.248 1.297.248.457 0 .888-.083 1.292-.248a3.251 3.251 0 0 0 1.061-.698c.303-.299.544-.651.723-1.057.178-.406.267-.848.267-1.328 0-.468-.09-.903-.267-1.306a3.339 3.339 0 0 0-.723-1.048 3.349 3.349 0 0 0-2.353-.95 3.39 3.39 0 0 0-2.367.95 3.302 3.302 0 0 0-.727 1.048 3.189 3.189 0 0 0-.268 1.306z" fill="#131415" fill-rule="nonzero"/>
    </g>
</svg>
