<svg width="232" height="61" viewBox="0 0 232 61" xmlns="http://www.w3.org/2000/svg" xmlns:xlink="http://www.w3.org/1999/xlink">
    <defs>
        <linearGradient x1="79.513%" y1="53.252%" x2="28.315%" y2="65.978%" id="lt6530adia">
            <stop stop-color="#2E2EFF" offset="0%"/>
            <stop stop-color="#2DEAF7" offset="100%"/>
        </linearGradient>
        <linearGradient x1="87.525%" y1="27.995%" x2="9.038%" y2="79.629%" id="cv5yktkp3b">
            <stop stop-color="#2E2EFF" offset="0%"/>
            <stop stop-color="#D783D2" offset="100%"/>
        </linearGradient>
        <linearGradient x1="91.914%" y1="38.73%" x2="17.515%" y2="43.415%" id="1ccetorv8c">
            <stop stop-color="#4BCC4B" offset="0%"/>
            <stop stop-color="#3DEAFF" offset="100%"/>
        </linearGradient>
        <filter x="-107.9%" y="-107.5%" width="315.8%" height="314.9%" filterUnits="objectBoundingBox" id="y5wai0gmxd">
            <feOffset in="SourceAlpha" result="shadowOffsetOuter1"/>
            <feGaussianBlur stdDeviation="2.5" in="shadowOffsetOuter1" result="shadowBlurOuter1"/>
            <feColorMatrix values="0 0 0 0 0 0 0 0 0 0 0 0 0 0 0 0 0 0 0.3 0" in="shadowBlurOuter1"/>
        </filter>
        <path d="M222.814 17.286v-1.299h.831c.105 0 .211.008.32.023a.885.885 0 0 1 .286.09c.083.043.15.105.203.186.052.081.079.19.079.327 0 .162-.03.288-.088.379a.531.531 0 0 1-.236.2c-.098.044-.21.07-.337.08a5.46 5.46 0 0 1-.402.014h-.656zm-.629-1.813v4.083h.629V17.8h.665l1.1 1.756h.674l-1.155-1.803c.302-.031.555-.132.758-.304.203-.171.305-.44.305-.808 0-.392-.116-.685-.347-.878-.23-.193-.586-.29-1.067-.29h-1.562zm-1.506 2.028c0-.418.072-.807.217-1.168.145-.361.345-.674.6-.94.256-.264.558-.473.906-.625a2.788 2.788 0 0 1 1.132-.23c.4 0 .774.077 1.119.23a2.832 2.832 0 0 1 1.501 1.565c.145.361.218.75.218 1.168 0 .43-.073.827-.218 1.191-.144.364-.345.68-.6.948a2.796 2.796 0 0 1-.901.631 2.733 2.733 0 0 1-1.119.229 2.788 2.788 0 0 1-2.037-.86 2.917 2.917 0 0 1-.6-.948 3.197 3.197 0 0 1-.218-1.191zm-.629 0a3.476 3.476 0 0 0 1.03 2.508c.318.315.688.56 1.11.734.422.174.87.261 1.344.261.475 0 .922-.087 1.34-.261a3.366 3.366 0 0 0 1.1-.734c.314-.314.564-.685.749-1.111.185-.427.277-.893.277-1.397 0-.492-.092-.95-.277-1.374a3.467 3.467 0 0 0-1.848-1.836 3.399 3.399 0 0 0-1.34-.266 3.508 3.508 0 0 0-2.454 1 3.475 3.475 0 0 0-.753 1.102 3.396 3.396 0 0 0-.278 1.374z" id="hqjeoap6se"/>
    </defs>
    <g fill="none" fill-rule="evenodd">
        <g fill="#FFF" fill-rule="nonzero">
            <path d="M80.988 28.752c0-2.891 1.166-5.17 3.498-6.838 2.332-1.667 5.45-2.5 9.356-2.5 4.01 0 7.156.78 9.435 2.343 2.28 1.562 3.419 3.713 3.419 6.453 0 .688-.093 1.393-.28 2.116H86.934c.373 1.341 1.239 2.352 2.597 3.034 1.358.682 3.14 1.023 5.343 1.023 3.602 0 6.948-.728 10.038-2.186l.787 3.9c-2.996 1.411-6.605 2.116-10.825 2.116-4.419 0-7.838-.824-10.257-2.474-2.42-1.65-3.629-3.979-3.629-6.987zm19.832-1.609c-.14-1.387-.81-2.457-2.011-3.209-1.201-.752-2.833-1.128-4.897-1.128-1.982 0-3.573.376-4.774 1.128-1.201.752-1.936 1.822-2.204 3.21h13.886zM110.543 19.938h6.104v3.62c2.564-2.763 5.759-4.144 9.583-4.144 3.02 0 5.43.78 7.231 2.343 1.802 1.562 2.702 3.667 2.702 6.313v9.601h-6.086v-9.6c0-1.411-.516-2.51-1.547-3.297-1.032-.787-2.475-1.18-4.329-1.18-1.375 0-2.74.215-4.092.646-1.352.432-2.506 1.05-3.462 1.854v11.577h-6.104V19.938zM139.66 36.097l.788-3.9c1.504.747 3.285 1.338 5.342 1.775 2.058.438 4.125.656 6.2.656 2.122 0 3.667-.145 4.634-.437.968-.291 1.452-.781 1.452-1.469 0-.536-.306-.936-.918-1.198-.612-.262-1.647-.457-3.104-.586l-4.32-.314c-3.416-.234-5.937-.8-7.564-1.697-1.626-.898-2.44-2.15-2.44-3.76 0-1.83.977-3.247 2.93-4.25 1.953-1.002 4.667-1.503 8.14-1.503 2.088 0 4.128.183 6.122.55 1.993.368 3.771.884 5.334 1.548l-.822 3.918c-1.295-.7-2.98-1.289-5.054-1.767-1.97-.454-4.058-.682-6.261-.682-1.562 0-2.734.143-3.515.429-.781.285-1.172.743-1.172 1.372 0 .548.318.957.953 1.225.635.268 1.723.466 3.262.594l4.442.333c6.47.466 9.705 2.279 9.705 5.438 0 1.877-1.055 3.32-3.165 4.329-2.11 1.008-5.1 1.512-8.971 1.512-4.559 0-8.558-.705-11.997-2.116z"/>
            <path d="m163.118 44.806.822-4.512c1.516.665 3.177.997 4.984.997 2.577 0 4.413-.874 5.509-2.623l.437-.682-10.86-18.048h6.733l7.52 13.256 7.415-13.256h6.733l-11.035 18.59c-1.54 2.542-3.27 4.366-5.194 5.474-1.96 1.13-4.367 1.696-7.223 1.696-1.19 0-2.218-.064-3.087-.192a15.05 15.05 0 0 1-2.754-.7zM192.76 36.097l.788-3.9c1.504.747 3.285 1.338 5.342 1.775 2.058.438 4.125.656 6.2.656 2.122 0 3.667-.145 4.634-.437.968-.291 1.452-.781 1.452-1.469 0-.536-.306-.936-.918-1.198-.612-.262-1.647-.457-3.104-.586l-4.32-.314c-3.416-.234-5.937-.8-7.564-1.697-1.626-.898-2.44-2.15-2.44-3.76 0-1.83.977-3.247 2.93-4.25 1.953-1.002 4.666-1.503 8.14-1.503 2.088 0 4.128.183 6.122.55 1.993.368 3.771.884 5.333 1.548l-.821 3.918c-1.295-.7-2.98-1.289-5.055-1.767-1.97-.454-4.057-.682-6.26-.682-1.563 0-2.734.143-3.515.429-.782.285-1.172.743-1.172 1.372 0 .548.318.957.953 1.225.635.268 1.723.466 3.262.594l4.441.333c6.471.466 9.706 2.279 9.706 5.438 0 1.877-1.055 3.32-3.165 4.329-2.11 1.008-5.1 1.512-8.971 1.512-4.559 0-8.558-.705-11.997-2.116z"/>
        </g>
        <path d="M31.28 0h-.127C20.801.088 11.424 5.889 7.108 17.11c-1.209 3.142-1.952 6.095-1.952 9.613 0 7.552 11.423 6.764 11.423.067 0-7.806 5.72-15.893 14.01-16.914 5.996-.739 9.164 3.177 9.164 7.939 0 5.857 9.192 6.296 9.192 0C48.945 7.535 41.611.02 31.372 0h-.092z" fill="url(#lt6530adia)"/>
        <path d="M39.753 17.815c0 5.937-4.377 9.802-12.225 15.367-7.85 5.565-24.248 14.067-26.002 15.046-1.754.98-1.746 3.313-1.21 4.428.536 1.117 2.237 2.457 4.497 1.555 2.258-.901 16.92-7.868 25.579-13.229 8.658-5.36 18.553-11.929 18.553-23.167 0-3.032-2.265-4.517-4.547-4.517-2.314 0-4.645 1.527-4.645 4.517" fill="url(#cv5yktkp3b)"/>
        <path d="M67.577 20.394c-14.028 5.565-25.768 16.919-33.555 27.114-5.295-3.62-17.443-10.484-17.443-20.718 0-7.149-11.423-7.324-11.423-.067 0 7.903 2.24 13.644 6.555 18.753 5.616 6.647 12.17 11.082 14.378 12.68 3.637 2.63 10.846 5.028 16.043-.532 4.602-4.922 16.114-17.836 28.888-22.04 3.835-1.262 4.785-6.415 3.7-9.923-.93-3.011-3.649-5.478-6.012-5.478-.39 0-.77.067-1.131.21" fill="url(#1ccetorv8c)"/>
        <path d="M75.277 26.995c.551 4.399-1.661 8.308-4.942 8.732-3.28.424-6.387-2.799-6.938-7.198-.55-4.399 1.603-7.855 4.884-8.278 3.28-.424 6.446 2.345 6.996 6.744" fill="#2E2EFF"/>
        <g fill-rule="nonzero">
            <use fill="#000" filter="url(#y5wai0gmxd)" xlink:href="#hqjeoap6se"/>
            <use fill="#FFF" xlink:href="#hqjeoap6se"/>
        </g>
    </g>
</svg>
