<svg width="67" height="52" viewBox="0 0 67 52" xmlns="http://www.w3.org/2000/svg">
    <g stroke="#000" stroke-width="2" fill="none" fill-rule="evenodd" stroke-linecap="round" stroke-linejoin="round">
        <path d="M29.85 1h9.322c3.526 0 6.385 2.867 6.385 6.403v6.149c0 3.536-2.859 6.403-6.385 6.403H35.23c-1.424 2.256-4.015 5.15-7.987 5.15a9.855 9.855 0 0 0 2.716-5.15h-.109c-3.525 0-6.384-2.867-6.384-6.403V7.403C23.465 3.867 26.324 1 29.85 1z"/>
        <path d="M66 51v-9.092c0-4.86-3.928-8.798-8.774-8.798h-7.363c-4.847 0-8.775 3.939-8.775 8.798V51M53.544 15.571h0c-3.065 0-5.552 2.492-5.552 5.568v2.77c0 3.075 2.487 5.567 5.552 5.567h0c3.066 0 5.552-2.492 5.552-5.567v-2.77c0-3.076-2.486-5.568-5.552-5.568z" opacity=".3"/>
        <path d="M25.912 51v-9.092c0-4.86-3.928-8.798-8.775-8.798H9.774C4.928 33.11 1 37.049 1 41.908V51M13.456 15.571h0c-3.066 0-5.552 2.492-5.552 5.568v2.77c0 3.075 2.486 5.567 5.552 5.567h0c3.065 0 5.552-2.492 5.552-5.567v-2.77c0-3.076-2.487-5.568-5.552-5.568z"/>
    </g>
</svg>
