<svg width="60" height="60" viewBox="0 0 60 60" xmlns="http://www.w3.org/2000/svg">
    <g stroke="#000" stroke-width="2" fill="none" fill-rule="evenodd" stroke-linecap="round" stroke-linejoin="round">
        <path d="m21.98 4.622 2.398-2.646c1.813-2 5.147-.721 5.147 1.972v3.124a2.947 2.947 0 0 0 2.954 2.942h3.136c2.706 0 3.987 3.322 1.98 5.126l-2.657 2.389a2.934 2.934 0 0 0 0 4.367l2.657 2.389c2.007 1.806.726 5.126-1.98 5.126H32.48a2.948 2.948 0 0 0-2.954 2.942v3.124c0 2.695-3.334 3.973-5.147 1.972l-2.398-2.644a2.962 2.962 0 0 0-4.385 0l-2.398 2.644c-1.813 2-5.147.723-5.147-1.972v-3.124a2.948 2.948 0 0 0-2.954-2.942H3.96c-2.706 0-3.987-3.32-1.98-5.126l2.657-2.389c1.3-1.168 1.3-3.2 0-4.367L1.98 15.14c-2.007-1.804-.726-5.126 1.98-5.126h3.136a2.947 2.947 0 0 0 2.954-2.942V3.948c0-2.693 3.334-3.971 5.147-1.972l2.398 2.646a2.962 2.962 0 0 0 4.385 0z"/>
        <path d="m14.146 20.006 3.938 3.922 8.463-8.43"/>
        <path d="M6.66 41.516v14.009A3.482 3.482 0 0 0 10.148 59h44.455a3.482 3.482 0 0 0 3.49-3.475V18.782L44.247 4.991H35.47" opacity=".3"/>
        <path d="M44.247 5.551v9.756a3.482 3.482 0 0 0 3.49 3.475h9.794M12.887 51.422H35.47" opacity=".3"/>
        <path d="M12.887 45.417h35.197"/>
    </g>
</svg>
