<svg width="213" height="126" viewBox="0 0 213 126" xmlns="http://www.w3.org/2000/svg">
    <g stroke-width="2.25" fill="none" fill-rule="evenodd" stroke-linecap="round" stroke-linejoin="round">
        <g stroke="#000">
            <path d="M16.365 123.509v-15.272M25.258 99.426c0-4.867-3.983-8.81-8.893-8.81-4.913 0-8.893 3.943-8.893 8.81 0 4.867 3.98 8.81 8.893 8.81 4.91 0 8.893-3.943 8.893-8.81z"/>
        </g>
        <path stroke="#000" d="M54.716 123.509h12.967v-17.315H54.716z"/>
        <path stroke="#000" d="M86.123 90.616 61.2 66.884 36.272 90.616v32.894h49.851z"/>
        <path stroke="#000" d="M86.123 123.509h50.015V90.616l-24.925-23.73H61.2M86.123 90.616h50.015M77.934 82.819h50.014M69.744 75.022h50.015M98.586 90.616 73.662 66.884M111.131 90.616 86.207 66.884M123.676 90.616 98.751 66.884M36.272 123.509H2"/>
        <g stroke="#000">
            <path d="M147.433 26.426c0-6.376-5.217-11.544-11.654-11.544-6.44 0-11.657 5.168-11.657 11.544S129.34 37.97 135.78 37.97c6.437 0 11.654-5.168 11.654-11.544zM135.778 9.25V2M135.778 43.602v7.249M118.439 26.426h-7.32M153.118 26.426h7.318M148.039 14.28l5.175-5.126M123.517 38.571l-5.175 5.126M123.517 14.28l-5.175-5.126M148.039 38.571l5.175 5.126"/>
        </g>
        <path stroke="#2E41FF" d="m184.246 85.689-5.443 14.102h6.22l-6.22 14.92 17.106-19.864h-7.153l3.73-9.158z"/>
        <path stroke="#000" d="M159.447 123.509H211V72.442h-51.553zM165.598 72.442h13.222v-5.555h-13.222zM191.63 72.442h13.222v-5.555H191.63z"/>
    </g>
</svg>
