<svg width="104" height="63" viewBox="0 0 104 63" xmlns="http://www.w3.org/2000/svg">
    <g fill="none" fill-rule="evenodd">
        <path fill="#2D39FF" opacity=".3" d="M70.678 26.912 50.288 8.396 29.896 26.912V60.69h40.78z"/>
        <path stroke="#000" stroke-width="2" stroke-linecap="round" stroke-linejoin="round" d="M15.368 60.688V45.335M24.264 36.477c0-4.893-3.984-8.857-8.895-8.857-4.915 0-8.896 3.964-8.896 8.857 0 4.893 3.98 8.856 8.896 8.856 4.911 0 8.895-3.963 8.895-8.856zM90.44 60.688v-34.81M102.871 13.5c0-6.836-5.565-12.377-12.43-12.377-6.867 0-12.432 5.54-12.432 12.376 0 6.836 5.565 12.377 12.431 12.377 6.866 0 12.431-5.54 12.431-12.377zM1.13 60.688h101.74M55.772 56.688V42.281h-10.97v14.407"/>
    </g>
</svg>
