<svg width="243" height="126" viewBox="0 0 243 126" xmlns="http://www.w3.org/2000/svg">
    <g stroke-width="2.25" fill="none" fill-rule="evenodd" stroke-linecap="round" stroke-linejoin="round">
        <path stroke="#2E41FF" d="M189.464 85.689 184.04 99.79h6.2l-6.2 14.92 17.05-19.864h-7.13l3.718-9.158z"/>
        <g stroke="#000">
            <path d="M16.317 123.509v-15.272M25.181 99.426c0-4.867-3.97-8.81-8.863-8.81-4.897 0-8.864 3.943-8.864 8.81 0 4.867 3.967 8.81 8.864 8.81 4.894 0 8.863-3.943 8.863-8.81z"/>
        </g>
        <path stroke="#000" d="M54.542 123.509h12.923v-17.315H54.542z"/>
        <path stroke="#000" d="M85.844 90.616 61.003 66.884 36.158 90.616v32.894h49.686z"/>
        <path stroke="#000" d="M85.844 123.509h49.849V90.616l-24.842-23.73H61.003M85.844 90.616h49.849M77.682 82.819h49.848M69.52 75.022h49.848M98.266 90.616 73.424 66.884M110.769 90.616 85.927 66.884M123.272 90.616 98.43 66.884M36.158 123.509H2"/>
        <g stroke="#000">
            <path d="M146.95 26.426c0-6.376-5.2-11.544-11.615-11.544-6.418 0-11.618 5.168-11.618 11.544s5.2 11.544 11.618 11.544c6.415 0 11.615-5.168 11.615-11.544zM135.334 9.25V2M135.334 43.602v7.249M118.052 26.426h-7.294M152.616 26.426h7.294M147.554 14.28l5.158-5.126M123.114 38.571l-5.158 5.126M123.114 14.28l-5.158-5.126M147.554 38.571l5.158 5.126"/>
        </g>
        <path stroke="#000" d="m176.737 59.663-32.61 16.104v5.639M224.695 123.509 208.39 75.767V59.664L195.235 38.15h-5.34l-13.158 21.514v16.103l-16.305 47.742M144.128 75.767h96.87"/>
        <path stroke="#000" d="M176.737 59.663h31.653L241 75.767v5.639"/>
    </g>
</svg>
