<?xml version="1.0" encoding="utf-8"?>
<svg id="master-artboard" viewBox="0 0 793.8743286132812 787.8137817382812" version="1.1" xmlns="http://www.w3.org/2000/svg" x="0px" y="0px" style="enable-background:new 0 0 336 235.2;" width="793.8743286132812px" height="787.8137817382812px"><rect id="ee-background" x="0" y="0" width="793.8743286132812" height="787.8137817382812" style="fill: white; fill-opacity: 0; pointer-events: none;"/><g transform="matrix(40.833335876464844, 0, 0, 40.833335876464844, -98.60671997070312, -96.09311103820801)"><path d="M 3 3 L 3 21 L 21 21 L 20.964088439941406 18.93096351623535 L 18.964086532592773 18.93096351623535 L 19 19 L 5 19 L 5 5 L 4.997213840484619 4.964088439941406 L 4.925389766693115 3 L 3 3 Z M 14 3 L 14 5 L 17.585938 5 L 8.2929688 14.292969 L 9.7070312 15.707031 L 19 6.4140625 L 19 10 L 21 10 L 21 3 L 14 3 Z" style="fill: rgb(173, 173, 173);"/></g><path d="M 566.5582275390625 157.43385314941406" style="fill: rgb(0, 0, 0); fill-opacity: 1; stroke: rgb(0, 0, 0); stroke-opacity: 1; stroke-width: 0; paint-order: fill;" transform="matrix(1, 0, 0, 1, -308.606689453125, -96.09310340881348)"/></svg>