<svg width="63" height="65" viewBox="0 0 63 65" xmlns="http://www.w3.org/2000/svg">
    <g stroke="#000" stroke-width="2" fill="none" fill-rule="evenodd" stroke-linecap="round" stroke-linejoin="round">
        <path d="M61.18 31.836 24.051 10.131 1 23.607l37.127 21.707z"/>
        <path opacity=".3" d="M1 29.576 38.127 51.28l23.052-13.475"/>
        <path opacity=".3" d="M1 35.935 38.127 57.64l23.052-13.476"/>
        <path opacity=".3" d="M1 42.295 38.127 64l23.052-13.476"/>
        <path d="M38.582 26.536c0-4.19-3.354-7.587-7.492-7.587s-7.493 3.397-7.493 7.587c0 4.19 3.355 7.587 7.493 7.587s7.492-3.397 7.492-7.587zM56.119 8.587c0-4.19-3.355-7.587-7.493-7.587s-7.492 3.397-7.492 7.587c0 4.19 3.354 7.587 7.492 7.587s7.493-3.397 7.493-7.587z"/>
    </g>
</svg>
