<svg width="75" height="66" viewBox="0 0 75 66" xmlns="http://www.w3.org/2000/svg">
    <g stroke="#000" stroke-width="2" fill="none" fill-rule="evenodd" stroke-linecap="round" stroke-linejoin="round">
        <path d="M38.138 51.703c0-.868-.123-1.704-.335-2.504l3.202-2.133-2.339-4.024-3.454 1.685a9.882 9.882 0 0 0-4.374-2.501l-.258-3.82h-4.677l-.258 3.82a9.882 9.882 0 0 0-4.374 2.501l-3.454-1.685-2.34 4.024L18.68 49.2a9.754 9.754 0 0 0-.336 2.504c0 .867.124 1.703.336 2.503l-3.202 2.133 2.339 4.025 3.454-1.686a9.882 9.882 0 0 0 4.374 2.502l.258 3.82h4.677l.258-3.82a9.882 9.882 0 0 0 4.374-2.502l3.454 1.686 2.34-4.025-3.203-2.133c.212-.8.335-1.636.335-2.503z" opacity=".3"/>
        <path d="M31.667 51.703c0-1.88-1.533-3.404-3.426-3.404-1.891 0-3.426 1.523-3.426 3.404 0 1.88 1.535 3.403 3.426 3.403 1.893 0 3.426-1.523 3.426-3.403z" opacity=".3"/>
        <path d="M69.494 25.759c0-1.363-.196-2.677-.527-3.936L74 18.47l-3.676-6.324-5.43 2.648a15.549 15.549 0 0 0-6.874-3.931l-.406-6.004h-7.352l-.406 6.004a15.56 15.56 0 0 0-6.875 3.931l-5.427-2.648-3.676 6.324 5.033 3.353a15.314 15.314 0 0 0-.53 3.936c0 1.362.197 2.676.53 3.935l-5.033 3.354 3.676 6.324 5.427-2.65a15.56 15.56 0 0 0 6.875 3.932l.406 6.005h7.352l.406-6.005a15.549 15.549 0 0 0 6.875-3.931l5.429 2.649L74 33.048l-5.033-3.354c.331-1.259.527-2.573.527-3.935z"/>
        <path d="M61.74 25.759c0-4.281-3.492-7.75-7.802-7.75-4.308 0-7.802 3.469-7.802 7.75 0 4.28 3.494 7.75 7.802 7.75 4.31 0 7.802-3.47 7.802-7.75z"/>
        <path d="M13.608 25.675a7.677 7.677 0 0 0 1.82.744l.668 10.748h2.685l.668-10.74a7.675 7.675 0 0 0 3.382-1.946l9.703 4.8 1.344-2.312-9.036-5.947a7.56 7.56 0 0 0 .004-3.881l9.032-5.945-1.344-2.31-9.705 4.8a7.625 7.625 0 0 0-1.56-1.194 7.677 7.677 0 0 0-1.82-.744L18.78 1h-2.685l-.667 10.74a7.675 7.675 0 0 0-3.383 1.946l-9.703-4.8L1 11.197l9.035 5.949a7.56 7.56 0 0 0-.004 3.881L1 26.97l1.343 2.311 9.705-4.799c.458.451.974.858 1.56 1.194z" opacity=".3"/>
        <path d="M16.048 21.477a2.793 2.793 0 0 0 3.8-1.011 2.753 2.753 0 0 0-1.018-3.776 2.792 2.792 0 0 0-3.8 1.012 2.751 2.751 0 0 0 1.018 3.775z" opacity=".3"/>
    </g>
</svg>
